{
    "asset" : {
        "generator" : "Khronos glTF Blender I/O v1.7.33",
        "version" : "2.0"
    },
    "scene" : 0,
    "scenes" : [
        {
            "name" : "Scene",
            "nodes" : [
                0
            ]
        }
    ],
    "nodes" : [
        {
            "mesh" : 0,
            "name" : "RIMS",
            "translation" : [
                0,
                1.0477252006530762,
                0
            ]
        }
    ],
    "animations" : [
        {
            "channels" : [
                {
                    "sampler" : 0,
                    "target" : {
                        "node" : 0,
                        "path" : "translation"
                    }
                },
                {
                    "sampler" : 1,
                    "target" : {
                        "node" : 0,
                        "path" : "rotation"
                    }
                },
                {
                    "sampler" : 2,
                    "target" : {
                        "node" : 0,
                        "path" : "scale"
                    }
                }
            ],
            "name" : "RIMSAction",
            "samplers" : [
                {
                    "input" : 16,
                    "interpolation" : "STEP",
                    "output" : 17
                },
                {
                    "input" : 16,
                    "interpolation" : "STEP",
                    "output" : 18
                },
                {
                    "input" : 16,
                    "interpolation" : "STEP",
                    "output" : 19
                }
            ]
        }
    ],
    "materials" : [
        {
            "doubleSided" : true,
            "name" : "Material.005",
            "pbrMetallicRoughness" : {
                "baseColorFactor" : [
                    0.800000011920929,
                    0.800000011920929,
                    0.800000011920929,
                    1
                ],
                "metallicFactor" : 0.1818181872367859,
                "roughnessFactor" : 0.1727272868156433
            }
        },
        {
            "doubleSided" : true,
            "name" : "Material.006",
            "pbrMetallicRoughness" : {
                "baseColorFactor" : [
                    0.013828057795763016,
                    0.004142919089645147,
                    0,
                    1
                ],
                "metallicFactor" : 0,
                "roughnessFactor" : 0.5
            }
        },
        {
            "doubleSided" : true,
            "name" : "Material",
            "pbrMetallicRoughness" : {
                "baseColorTexture" : {
                    "index" : 0
                },
                "metallicFactor" : 0
            }
        },
        {
            "doubleSided" : true,
            "name" : "Material.004",
            "pbrMetallicRoughness" : {
                "baseColorTexture" : {
                    "index" : 1
                },
                "metallicFactor" : 0
            }
        }
    ],
    "meshes" : [
        {
            "name" : "Circle.008",
            "primitives" : [
                {
                    "attributes" : {
                        "POSITION" : 0,
                        "NORMAL" : 1,
                        "TEXCOORD_0" : 2
                    },
                    "indices" : 3,
                    "material" : 0
                },
                {
                    "attributes" : {
                        "POSITION" : 4,
                        "NORMAL" : 5,
                        "TEXCOORD_0" : 6
                    },
                    "indices" : 7,
                    "material" : 1
                },
                {
                    "attributes" : {
                        "POSITION" : 8,
                        "NORMAL" : 9,
                        "TEXCOORD_0" : 10
                    },
                    "indices" : 11,
                    "material" : 2
                },
                {
                    "attributes" : {
                        "POSITION" : 12,
                        "NORMAL" : 13,
                        "TEXCOORD_0" : 14
                    },
                    "indices" : 15,
                    "material" : 3
                }
            ]
        }
    ],
    "textures" : [
        {
            "sampler" : 0,
            "source" : 0
        },
        {
            "sampler" : 0,
            "source" : 1
        }
    ],
    "images" : [
        {
            "bufferView" : 12,
            "mimeType" : "image/png",
            "name" : "eskimo head"
        },
        {
            "bufferView" : 17,
            "mimeType" : "image/png",
            "name" : "clothes"
        }
    ],
    "accessors" : [
        {
            "bufferView" : 0,
            "componentType" : 5126,
            "count" : 1696,
            "max" : [
                1.6382287740707397,
                2.8282127380371094,
                1
            ],
            "min" : [
                -1.6382287740707397,
                -1.0381368398666382,
                -1
            ],
            "type" : "VEC3"
        },
        {
            "bufferView" : 1,
            "componentType" : 5126,
            "count" : 1696,
            "type" : "VEC3"
        },
        {
            "bufferView" : 2,
            "componentType" : 5126,
            "count" : 1696,
            "type" : "VEC2"
        },
        {
            "bufferView" : 3,
            "componentType" : 5123,
            "count" : 2556,
            "type" : "SCALAR"
        },
        {
            "bufferView" : 4,
            "componentType" : 5126,
            "count" : 832,
            "max" : [
                1.704237937927246,
                0.6225267648696899,
                0.2943784296512604
            ],
            "min" : [
                -1.704237937927246,
                -1.0875581502914429,
                -0.7409883141517639
            ],
            "type" : "VEC3"
        },
        {
            "bufferView" : 5,
            "componentType" : 5126,
            "count" : 832,
            "type" : "VEC3"
        },
        {
            "bufferView" : 6,
            "componentType" : 5126,
            "count" : 832,
            "type" : "VEC2"
        },
        {
            "bufferView" : 7,
            "componentType" : 5123,
            "count" : 1248,
            "type" : "SCALAR"
        },
        {
            "bufferView" : 8,
            "componentType" : 5126,
            "count" : 216,
            "max" : [
                0.728803277015686,
                2.5733561515808105,
                0.6261703968048096
            ],
            "min" : [
                -0.728803277015686,
                1.115749716758728,
                -0.8314361572265625
            ],
            "type" : "VEC3"
        },
        {
            "bufferView" : 9,
            "componentType" : 5126,
            "count" : 216,
            "type" : "VEC3"
        },
        {
            "bufferView" : 10,
            "componentType" : 5126,
            "count" : 216,
            "type" : "VEC2"
        },
        {
            "bufferView" : 11,
            "componentType" : 5123,
            "count" : 1020,
            "type" : "SCALAR"
        },
        {
            "bufferView" : 13,
            "componentType" : 5126,
            "count" : 1940,
            "max" : [
                1.5162009000778198,
                2.6965460777282715,
                0.7998073101043701
            ],
            "min" : [
                -1.5162009000778198,
                -1.0045781135559082,
                -0.7998073101043701
            ],
            "type" : "VEC3"
        },
        {
            "bufferView" : 14,
            "componentType" : 5126,
            "count" : 1940,
            "type" : "VEC3"
        },
        {
            "bufferView" : 15,
            "componentType" : 5126,
            "count" : 1940,
            "type" : "VEC2"
        },
        {
            "bufferView" : 16,
            "componentType" : 5123,
            "count" : 2904,
            "type" : "SCALAR"
        },
        {
            "bufferView" : 18,
            "componentType" : 5126,
            "count" : 1,
            "max" : [
                0
            ],
            "min" : [
                0
            ],
            "type" : "SCALAR"
        },
        {
            "bufferView" : 19,
            "componentType" : 5126,
            "count" : 1,
            "type" : "VEC3"
        },
        {
            "bufferView" : 20,
            "componentType" : 5126,
            "count" : 1,
            "type" : "VEC4"
        },
        {
            "bufferView" : 21,
            "componentType" : 5126,
            "count" : 1,
            "type" : "VEC3"
        }
    ],
    "bufferViews" : [
        {
            "buffer" : 0,
            "byteLength" : 20352,
            "byteOffset" : 0
        },
        {
            "buffer" : 0,
            "byteLength" : 20352,
            "byteOffset" : 20352
        },
        {
            "buffer" : 0,
            "byteLength" : 13568,
            "byteOffset" : 40704
        },
        {
            "buffer" : 0,
            "byteLength" : 5112,
            "byteOffset" : 54272
        },
        {
            "buffer" : 0,
            "byteLength" : 9984,
            "byteOffset" : 59384
        },
        {
            "buffer" : 0,
            "byteLength" : 9984,
            "byteOffset" : 69368
        },
        {
            "buffer" : 0,
            "byteLength" : 6656,
            "byteOffset" : 79352
        },
        {
            "buffer" : 0,
            "byteLength" : 2496,
            "byteOffset" : 86008
        },
        {
            "buffer" : 0,
            "byteLength" : 2592,
            "byteOffset" : 88504
        },
        {
            "buffer" : 0,
            "byteLength" : 2592,
            "byteOffset" : 91096
        },
        {
            "buffer" : 0,
            "byteLength" : 1728,
            "byteOffset" : 93688
        },
        {
            "buffer" : 0,
            "byteLength" : 2040,
            "byteOffset" : 95416
        },
        {
            "buffer" : 0,
            "byteLength" : 73274,
            "byteOffset" : 97456
        },
        {
            "buffer" : 0,
            "byteLength" : 23280,
            "byteOffset" : 170732
        },
        {
            "buffer" : 0,
            "byteLength" : 23280,
            "byteOffset" : 194012
        },
        {
            "buffer" : 0,
            "byteLength" : 15520,
            "byteOffset" : 217292
        },
        {
            "buffer" : 0,
            "byteLength" : 5808,
            "byteOffset" : 232812
        },
        {
            "buffer" : 0,
            "byteLength" : 20947,
            "byteOffset" : 238620
        },
        {
            "buffer" : 0,
            "byteLength" : 4,
            "byteOffset" : 259568
        },
        {
            "buffer" : 0,
            "byteLength" : 12,
            "byteOffset" : 259572
        },
        {
            "buffer" : 0,
            "byteLength" : 16,
            "byteOffset" : 259584
        },
        {
            "buffer" : 0,
            "byteLength" : 12,
            "byteOffset" : 259600
        }
    ],
    "samplers" : [
        {
            "magFilter" : 9729,
            "minFilter" : 9987
        }
    ],
    "buffers" : [
        {
            "byteLength" : 259612,
            "uri" : "data:application/octet-stream;base64,"
        }
    ]
}
